<?xml version="1.0" standalone="no"?>
<!DOCTYPE svg PUBLIC "-//W3C//DTD SVG 20010904//EN"
 "http://www.w3.org/TR/2001/REC-SVG-20010904/DTD/svg10.dtd">
<svg version="1.0" xmlns="http://www.w3.org/2000/svg"
 width="512.000000pt" height="512.000000pt" viewBox="0 0 512.000000 512.000000"
 preserveAspectRatio="xMidYMid meet">
<metadata>
Created by potrace 1.14, written by Peter Selinger 2001-2017
</metadata>
<g transform="translate(0.000000,512.000000) scale(0.100000,-0.100000)"
fill="#000000" stroke="none">
<path d="M3932 4846 c-18 -5 -32 -14 -32 -20 0 -6 -5 -4 -10 4 -6 10 -10 11
-10 3 0 -7 -5 -13 -11 -13 -5 0 -24 -13 -42 -30 -18 -16 -36 -30 -40 -30 -5 0
-5 -5 -2 -10 3 -6 -1 -13 -9 -16 -14 -5 -43 -70 -38 -86 1 -5 -4 -8 -11 -8 -8
0 -7 -4 3 -10 12 -8 12 -10 1 -10 -10 0 -11 -3 -2 -13 6 -8 8 -17 4 -21 -13
-12 -14 -48 -1 -40 7 4 8 3 4 -5 -4 -6 -2 -19 6 -28 9 -12 9 -15 1 -9 -7 4
-13 5 -13 3 0 -11 35 -72 51 -88 11 -11 19 -26 19 -34 0 -9 6 -12 15 -9 10 4
15 0 15 -11 0 -9 5 -13 10 -10 6 3 10 1 10 -5 0 -6 5 -8 10 -5 6 3 10 2 10 -3
0 -5 10 -13 23 -17 12 -4 29 -9 37 -12 27 -9 140 -8 140 1 0 4 9 6 21 3 12 -3
22 0 26 9 3 8 11 14 17 14 38 0 130 126 138 190 2 14 7 31 12 39 6 10 5 12 -3
7 -8 -5 -10 0 -7 18 2 14 -1 27 -7 30 -9 3 -9 5 0 5 13 1 5 41 -8 41 -5 0 -9
7 -9 16 0 8 -10 30 -22 48 -25 36 -88 93 -88 79 0 -4 -4 -3 -8 2 -12 18 -92
45 -92 32 0 -9 -2 -9 -8 -1 -8 14 -54 14 -100 0z"/>
<path d="M1702 4208 c-7 -7 -12 -8 -12 -4 0 5 -8 2 -17 -5 -9 -8 -14 -9 -10
-3 8 13 -71 13 -93 -1 -9 -6 -11 -4 -5 4 5 10 3 11 -11 4 -11 -5 -31 -9 -46
-8 -16 0 -28 -3 -28 -7 0 -4 -5 -8 -11 -8 -5 0 -7 6 -3 13 6 9 4 9 -8 -1 -9
-7 -25 -14 -36 -17 -67 -12 -207 -100 -260 -162 -49 -57 -52 -61 -52 -73 0 -5
-3 -10 -8 -10 -10 0 -62 -107 -68 -142 -1 -5 -2 -9 -4 -10 -3 -5 -12 -43 -13
-60 -1 -10 -5 -18 -9 -18 -4 0 -5 -9 -3 -20 2 -11 -1 -20 -7 -20 -7 0 -7 -4 0
-13 7 -8 7 -17 -2 -30 -7 -9 -12 -28 -11 -42 2 -14 -1 -25 -5 -25 -5 0 -7 -9
-5 -20 2 -11 0 -20 -5 -20 -4 0 -7 -8 -5 -17 1 -10 -2 -24 -8 -30 -6 -9 -5
-13 4 -13 9 0 10 -3 4 -8 -9 -6 -26 -74 -39 -147 -1 -5 -5 -16 -9 -22 -5 -8
-3 -13 4 -13 10 0 10 -3 1 -12 -7 -7 -12 -24 -12 -39 0 -15 -5 -31 -10 -34 -6
-3 -8 -17 -6 -31 3 -14 0 -24 -7 -24 -8 0 -7 -3 2 -9 10 -7 11 -9 1 -13 -7 -2
-13 -18 -12 -36 0 -18 -2 -30 -6 -28 -4 2 -8 -8 -9 -22 -3 -48 -14 -106 -21
-112 -15 -11 -9 -26 14 -37 13 -6 22 -8 20 -4 -2 3 83 6 190 6 l195 -1 6 25
c3 13 6 37 7 52 1 15 4 25 8 23 4 -3 7 4 7 13 -1 22 6 63 14 83 5 13 14 58 23
115 1 11 6 31 9 45 7 28 16 69 19 85 1 6 6 16 10 24 6 9 5 12 -1 8 -6 -4 -5 8
2 30 7 21 11 46 10 55 -2 10 -1 18 3 18 4 0 9 12 10 27 1 15 8 30 15 35 9 6 9
8 -2 8 -11 0 -11 3 0 17 12 15 12 16 -1 8 -12 -6 -13 -5 -2 6 6 7 12 26 12 41
0 15 4 28 8 28 4 0 8 10 9 21 1 12 9 29 17 38 9 10 16 22 16 27 1 13 83 73
106 77 10 1 24 5 29 9 6 3 78 5 162 4 88 0 149 3 146 8 -4 5 -1 6 6 2 18 -12
240 -13 234 -2 -4 5 -1 6 6 1 18 -11 240 -12 234 -1 -4 5 0 5 8 0 8 -4 38 -7
68 -6 l53 2 -5 -32 c-16 -101 -21 -127 -32 -150 -4 -10 -5 -25 -1 -33 3 -8 2
-15 -3 -15 -5 0 -8 -10 -8 -22 -1 -40 -3 -49 -11 -44 -4 2 -7 -8 -6 -22 1 -15
-2 -37 -7 -48 -4 -13 -3 -26 4 -34 9 -10 9 -11 0 -6 -9 5 -13 0 -13 -13 0 -12
-5 -21 -12 -21 -9 0 -9 -3 0 -12 7 -7 8 -17 2 -29 -6 -10 -11 -34 -12 -53 -2
-20 -6 -36 -10 -36 -5 0 -8 -12 -8 -26 0 -21 4 -25 20 -21 11 3 20 1 20 -5 0
-5 5 -6 11 -3 15 10 129 11 129 2 0 -5 5 -5 12 -1 18 11 68 10 68 -1 0 -7 3
-7 8 0 10 14 32 17 32 4 0 -5 5 -7 11 -3 6 3 281 7 612 9 331 1 616 5 632 8
17 3 47 13 68 22 20 8 37 12 37 9 0 -4 9 1 20 11 11 10 20 15 20 10 0 -4 6 -2
13 4 8 6 17 8 20 4 4 -3 7 -2 7 4 0 6 19 23 43 38 64 42 147 136 161 183 4 12
12 22 17 22 5 0 9 4 9 9 0 5 4 20 9 33 5 13 9 26 10 31 0 4 7 20 14 35 8 15
13 35 12 44 -2 10 1 21 6 24 6 3 7 14 4 25 -4 10 -2 19 4 19 5 0 10 8 10 18 0
21 7 68 16 102 3 14 8 34 10 45 2 11 6 34 10 50 4 17 7 38 8 48 1 9 4 17 7 17
5 0 8 24 13 90 1 14 5 27 9 30 4 3 8 17 10 30 2 14 7 31 12 38 5 8 3 18 -4 25
-10 9 -11 9 -5 -3 7 -12 6 -13 -6 -3 -8 7 -26 9 -39 6 -17 -5 -21 -3 -15 7 6
10 4 11 -6 4 -8 -4 -26 -9 -41 -9 -15 0 -30 -4 -34 -8 -4 -4 -13 -2 -21 4 -7
6 -13 8 -13 4 0 -4 -6 -2 -14 4 -9 8 -16 8 -20 2 -4 -5 -15 -8 -26 -6 -11 2
-22 0 -25 -5 -3 -4 -14 -6 -25 -3 -11 3 -17 10 -13 17 4 7 1 6 -9 -1 -8 -7
-18 -10 -21 -6 -4 3 -13 0 -21 -6 -9 -8 -16 -9 -21 -2 -3 6 -20 9 -38 7 -18
-2 -40 0 -49 5 -14 8 -16 6 -11 -7 5 -13 3 -15 -8 -8 -8 4 -22 7 -33 5 -13 -2
-16 1 -10 11 6 10 4 11 -7 2 -8 -5 -21 -10 -29 -9 -8 0 -18 -4 -22 -10 -5 -6
-8 -6 -8 2 0 6 -9 9 -22 5 -16 -4 -19 -2 -13 9 7 11 6 12 -6 3 -8 -6 -38 -9
-66 -8 -29 1 -50 -2 -47 -7 3 -5 -2 -6 -10 -3 -9 3 -13 11 -9 18 5 8 3 8 -8 0
-8 -5 -21 -10 -29 -9 -8 0 -18 -4 -22 -10 -5 -6 -8 -6 -8 2 0 6 -9 9 -22 5
-16 -4 -19 -2 -13 8 6 9 4 11 -6 5 -19 -13 -51 -14 -71 -4 -14 8 -16 6 -11 -7
5 -13 3 -15 -8 -8 -8 4 -22 7 -33 5 -13 -2 -16 1 -10 11 6 10 4 11 -7 2 -8 -5
-21 -10 -29 -9 -8 0 -18 -4 -22 -10 -5 -6 -8 -6 -8 2 0 6 -9 9 -22 5 -16 -4
-19 -2 -13 8 6 9 4 11 -6 5 -19 -13 -51 -14 -71 -4 -14 8 -16 6 -11 -7 5 -13
3 -15 -6 -9 -26 16 -71 13 -81 -5 -5 -10 -6 -20 -3 -24 3 -3 0 -6 -8 -6 -11 0
-11 -2 1 -10 11 -7 11 -10 2 -10 -7 0 -11 -4 -7 -9 3 -5 1 -12 -4 -16 -6 -3
-8 -12 -5 -19 3 -8 -1 -29 -8 -47 -7 -19 -13 -49 -13 -66 0 -18 -3 -33 -8 -33
-5 0 -7 -7 -4 -15 4 -8 3 -17 -2 -19 -4 -3 -7 -19 -6 -36 1 -16 -3 -30 -8 -30
-6 0 -8 -3 -4 -6 3 -3 2 -17 -3 -30 -9 -24 3 -44 15 -24 4 7 13 6 28 -1 16 -9
22 -9 25 0 2 6 9 8 14 4 19 -11 68 -11 68 1 0 7 3 7 8 1 9 -13 72 -16 72 -3 0
5 5 6 12 2 19 -12 68 -12 68 0 0 7 3 7 8 1 9 -13 72 -16 72 -3 0 5 5 6 12 2
19 -12 68 -12 68 0 0 7 3 7 8 1 9 -13 72 -16 72 -3 0 5 5 6 12 2 19 -12 68
-12 68 0 0 7 3 7 8 1 9 -13 112 -15 112 -2 0 6 5 6 13 0 6 -5 28 -8 48 -7 29
1 36 -2 34 -15 -2 -9 -4 -17 -5 -18 -2 -2 -3 -6 -4 -10 -7 -30 -19 -53 -27
-53 -5 0 -9 -6 -9 -14 0 -8 -15 -25 -32 -37 -18 -13 -36 -28 -40 -33 -4 -6
-10 -7 -14 -3 -4 4 -13 2 -21 -4 -9 -8 -146 -11 -466 -11 -248 0 -459 1 -469
1 -13 1 -15 8 -12 34 3 17 8 39 11 47 3 8 7 20 7 25 8 61 31 153 38 149 4 -3
4 6 -2 20 -5 14 -6 26 -1 26 4 0 8 6 8 13 1 6 6 37 13 67 20 95 23 114 24 137
1 11 4 19 8 17 4 -3 7 4 7 13 0 10 2 30 5 46 4 27 -8 38 -17 15 -4 -10 -6 -10
-6 -1 -1 7 -8 10 -16 7 -9 -4 -15 -1 -15 7 0 8 -6 5 -16 -7 -8 -10 -13 -14
-10 -8 3 7 -1 15 -10 18 -8 3 -12 2 -9 -3 3 -6 -8 -9 -24 -9 -19 1 -28 5 -24
12 5 8 3 8 -8 0 -8 -5 -21 -10 -29 -9 -8 0 -18 -4 -22 -10 -5 -6 -8 -6 -8 2 0
6 -9 9 -22 5 -16 -4 -19 -2 -13 8 6 9 4 11 -6 5 -19 -13 -51 -14 -71 -4 -14 8
-16 6 -11 -7 5 -13 3 -15 -13 -7 -10 6 -25 8 -33 5 -10 -3 -11 0 -5 9 7 12 5
12 -9 0 -9 -7 -17 -10 -17 -6 0 4 -6 2 -14 -4 -9 -7 -17 -8 -20 -2 -3 5 -16 7
-28 3 -16 -4 -19 -2 -13 8 6 9 4 11 -6 5 -20 -13 -51 -14 -74 -2 -18 9 -19 9
-6 -7 13 -15 12 -16 -10 -8 -13 5 -30 7 -38 4 -10 -3 -11 0 -5 9 7 12 5 12 -9
0 -9 -7 -17 -10 -17 -6 0 4 -6 2 -14 -4 -10 -8 -16 -9 -21 -1 -3 5 -11 10 -16
10 -6 0 -7 -6 -3 -12 6 -10 4 -10 -7 -2 -17 14 -50 15 -66 2 -7 -5 -14 -5 -18
1 -3 6 -20 9 -38 7 -18 -2 -41 1 -52 7 -18 9 -19 9 -6 -7 13 -15 12 -16 -10
-8 -13 5 -30 7 -38 4 -10 -3 -11 0 -5 9 7 12 5 12 -9 0 -9 -7 -17 -10 -17 -6
0 4 -6 2 -14 -4 -10 -8 -16 -9 -21 -1 -3 5 -11 10 -16 10 -6 0 -7 -5 -3 -12 5
-8 3 -8 -7 -2 -19 12 -89 12 -89 -1 0 -5 -5 -2 -11 8 -8 14 -14 16 -25 6 -8
-6 -14 -8 -14 -3 0 5 -5 2 -10 -6 -5 -8 -10 -10 -10 -4 0 12 -78 13 -97 1 -7
-4 -15 -2 -19 4 -5 8 -3 9 6 4 9 -5 11 -4 6 3 -9 15 -9 15 -24 0z"/>
<path d="M1840 3671 c0 -7 -4 -10 -9 -6 -5 3 -12 1 -16 -5 -4 -6 -11 -8 -16
-5 -5 4 -9 1 -9 -4 0 -6 -7 -11 -16 -11 -24 0 -114 -99 -121 -132 -3 -15 -9
-28 -12 -28 -4 0 -8 -34 -8 -75 -1 -41 3 -75 8 -75 5 0 8 -3 7 -7 -4 -13 24
-73 33 -73 5 0 8 -3 7 -8 -2 -4 8 -19 22 -33 29 -29 116 -86 105 -69 -5 9 -1
8 16 -1 29 -15 82 -18 129 -7 19 5 40 10 46 11 18 4 66 38 95 68 15 15 30 25
35 21 4 -4 4 1 1 11 -4 9 -3 17 2 17 11 0 29 42 25 63 -1 9 2 14 8 11 5 -3 9
2 8 12 -1 11 -1 21 0 24 8 21 6 40 -3 40 -7 0 -5 5 3 10 8 5 10 10 5 10 -6 0
-12 11 -13 25 -3 47 -5 55 -14 55 -4 0 -8 6 -8 14 0 8 -13 27 -30 43 -16 15
-30 34 -30 41 0 7 -4 11 -9 8 -5 -3 -12 1 -15 10 -3 8 -10 12 -16 9 -6 -3 -13
0 -16 8 -3 8 -13 14 -22 12 -9 -1 -19 2 -22 6 -8 12 -109 18 -116 7 -3 -5 -12
-4 -20 3 -11 9 -14 9 -14 0z"/>
<path d="M950 2512 c-77 -22 -180 -101 -180 -137 0 -8 -5 -15 -11 -15 -5 0 -7
-4 -4 -10 3 -5 1 -10 -4 -10 -6 0 -10 -3 -10 -7 1 -5 0 -10 -1 -13 -8 -15 -6
-150 2 -150 5 0 6 -4 3 -10 -3 -5 -1 -10 5 -10 6 0 8 -5 5 -10 -7 -11 26 -62
60 -96 34 -32 97 -66 112 -60 8 3 11 1 8 -4 -3 -6 2 -10 12 -11 88 -4 130 -3
126 4 -2 4 -1 7 4 8 30 3 48 9 51 19 2 5 7 8 12 5 4 -2 18 4 30 15 13 11 27
20 32 20 5 0 6 5 3 10 -3 6 -2 10 4 10 12 0 51 62 56 90 2 12 9 27 14 34 6 7
6 17 1 26 -5 9 -5 19 1 26 7 8 6 14 -1 19 -8 5 -8 11 1 21 8 10 8 14 0 14 -6
0 -11 11 -11 25 0 14 -4 25 -10 25 -5 0 -7 7 -4 15 4 8 1 15 -7 15 -7 0 -10 3
-6 6 3 3 -5 18 -19 32 -13 15 -24 30 -24 34 0 5 -5 8 -10 8 -6 0 -20 9 -32 20
-12 11 -28 20 -35 20 -7 0 -13 4 -13 8 0 5 -13 8 -30 7 -16 -1 -27 1 -25 5 4
7 -82 9 -105 2z"/>
<path d="M3908 2515 c-2 -2 -16 -6 -32 -9 -15 -3 -40 -13 -55 -22 -14 -10 -28
-18 -31 -17 -3 0 -19 -16 -37 -35 -39 -43 -72 -109 -68 -139 1 -12 -1 -20 -5
-18 -10 6 -7 -56 3 -72 5 -8 3 -13 -5 -13 -10 0 -10 -2 1 -9 7 -5 10 -14 7
-20 -4 -6 -2 -11 3 -11 6 0 10 -3 9 -7 -2 -10 13 -44 26 -61 36 -45 136 -114
136 -95 0 5 4 2 9 -5 8 -14 129 -21 149 -8 7 4 21 9 32 11 36 7 124 77 113 89
-4 3 -1 6 6 6 11 0 36 47 33 63 -1 4 3 7 9 7 5 0 8 4 4 9 -3 5 -1 12 4 16 6 3
7 13 4 22 -5 11 -3 14 6 8 10 -6 11 -3 2 12 -7 14 -7 24 2 33 10 10 9 11 -2 5
-10 -6 -13 -4 -9 7 4 8 2 21 -2 29 -5 8 -4 19 3 28 7 9 7 12 1 8 -6 -3 -16 9
-24 29 -8 19 -20 40 -27 46 -7 5 -10 14 -7 19 3 5 0 9 -6 9 -6 0 -21 9 -33 21
-35 33 -103 59 -161 64 -30 2 -56 2 -58 0z"/>
<path d="M3077 2364 c-3 -5 -35 -9 -71 -8 -47 0 -67 -3 -70 -13 -4 -9 -1 -11
6 -7 7 5 8 3 2 -7 -13 -21 -14 -39 -1 -39 7 0 5 -5 -3 -10 -8 -5 -10 -10 -4
-10 8 0 9 -13 4 -40 -4 -22 -3 -43 1 -46 5 -3 5 -14 -1 -24 -13 -24 4 -29 95
-25 91 3 89 3 75 20 -9 10 -32 15 -77 15 l-64 0 4 28 c3 18 10 27 21 26 9 -1
16 2 16 6 0 4 18 4 40 0 22 -4 40 -5 41 -1 0 3 2 13 4 22 2 13 -7 16 -52 15
-62 -2 -67 0 -71 33 -3 18 0 22 11 18 8 -3 20 0 26 6 8 8 11 8 11 -1 0 -10 5
-10 21 -1 12 6 19 7 16 2 -3 -5 3 -9 13 -9 10 0 17 3 14 7 -2 4 1 9 8 11 8 3
8 9 1 22 -6 10 -13 15 -16 10z"/>
<path d="M3380 2355 c-7 -8 -9 -15 -4 -15 5 0 3 -4 -5 -9 -7 -5 -14 -25 -15
-45 0 -20 -4 -36 -7 -36 -4 0 -10 -10 -14 -22 -8 -23 -8 -23 -12 2 -2 14 -9
41 -16 60 -12 36 -14 44 -16 59 0 5 -9 8 -18 6 -10 -2 -21 -4 -25 -4 -5 -1 -8
-10 -8 -21 0 -11 -5 -20 -11 -20 -5 0 -7 -5 -4 -10 4 -6 1 -18 -7 -27 -11 -14
-11 -16 1 -8 11 6 13 4 8 -9 -4 -10 -7 -21 -7 -25 0 -20 -30 -5 -31 16 -2 35
-3 41 -11 49 -5 4 -8 17 -8 30 0 26 -28 41 -36 19 -3 -8 1 -36 10 -61 9 -26
13 -50 10 -55 -3 -5 -1 -9 3 -9 5 0 9 -8 10 -18 2 -31 8 -46 21 -60 14 -15 47
-8 37 8 -3 5 -2 10 4 10 5 0 8 8 7 17 -2 9 3 28 10 41 7 14 10 31 7 38 -3 9 2
14 16 14 14 0 20 -6 19 -17 -3 -31 23 -111 39 -117 18 -7 35 2 28 15 -4 5 -1
9 5 9 6 0 8 5 5 10 -3 6 -2 10 3 10 5 0 8 14 7 30 -1 17 3 30 8 30 5 0 7 14 5
30 -3 17 -1 30 4 30 4 0 7 3 6 8 0 4 2 15 7 25 11 25 -8 42 -25 22z"/>
<path d="M3470 2358 c0 -4 -4 -7 -9 -5 -16 4 -50 -44 -44 -61 9 -23 44 -53 54
-46 5 3 9 0 9 -6 0 -6 4 -9 9 -5 5 3 12 1 16 -5 4 -6 11 -8 16 -4 18 11 40
-16 28 -37 -15 -29 -99 -24 -99 6 0 7 -7 18 -16 25 -8 8 -14 9 -13 4 4 -22 -2
-35 -13 -28 -6 4 -3 -5 8 -19 29 -40 93 -58 122 -34 13 10 14 9 7 -3 -4 -8 4
-4 18 9 15 13 24 28 21 32 -3 5 -1 9 5 9 32 0 -32 76 -64 76 -30 1 -48 7 -64
22 -12 12 -12 16 2 29 14 14 18 14 33 2 10 -8 15 -9 11 -2 -5 8 0 11 13 10 11
-1 23 -9 26 -19 3 -10 14 -18 24 -18 17 0 18 4 9 30 -6 16 -15 27 -20 24 -5
-3 -9 0 -9 7 0 6 -8 9 -20 6 -11 -3 -20 -1 -20 3 0 5 -9 8 -20 7 -11 -1 -20
-5 -20 -9z"/>
<path d="M1530 2351 c-8 -6 -18 -7 -22 -5 -4 3 -8 0 -8 -7 0 -7 -3 -10 -6 -7
-6 7 -74 -61 -74 -74 0 -5 -6 -3 -13 4 -8 7 -12 25 -11 41 5 36 -2 48 -21 40
-10 -3 -13 -14 -11 -29 3 -13 0 -24 -5 -24 -6 0 -7 -6 -2 -12 12 -21 13 -41 0
-57 -9 -12 -9 -13 0 -8 9 6 11 -3 8 -34 -3 -28 0 -46 10 -56 14 -13 19 -10 16
10 0 4 3 7 8 7 4 0 7 12 5 27 -1 15 2 33 8 40 12 15 42 18 34 4 -3 -5 1 -12
10 -15 8 -3 12 -10 9 -16 -3 -6 1 -13 9 -16 9 -3 16 -12 16 -18 0 -17 47 -38
55 -26 4 6 2 10 -4 10 -5 0 -8 9 -6 20 2 11 1 19 -3 19 -19 -3 -33 2 -28 10 3
5 -5 20 -18 33 -28 31 -29 52 -3 69 36 26 53 41 37 33 -8 -4 -5 3 8 15 29 29
31 39 2 22z"/>
<path d="M1995 2337 c-4 -15 -5 -34 -1 -42 3 -8 1 -15 -5 -15 -6 0 -7 -6 -2
-12 4 -7 6 -40 5 -72 -3 -63 10 -85 37 -63 12 10 13 9 6 -2 -6 -11 -4 -13 7
-8 9 3 21 0 28 -6 10 -9 11 -9 6 0 -4 8 5 13 26 15 24 2 37 11 51 35 18 32 18
33 -2 54 -18 20 -19 49 -1 49 12 0 6 34 -8 43 -7 5 -10 11 -8 15 2 4 -7 12
-20 19 -13 6 -24 7 -24 2 0 -5 -11 -4 -25 1 -18 7 -25 6 -25 -3 0 -8 -4 -7
-10 3 -9 13 -10 13 -10 0 0 -13 -2 -13 -9 -1 -8 12 -11 9 -16 -12z m122 -42
c13 -14 10 -19 -9 -16 -5 0 -8 -4 -8 -10 0 -6 -6 -9 -12 -6 -7 2 -23 1 -34 -4
-18 -6 -23 -4 -26 15 -3 12 -3 27 -1 32 5 15 72 7 90 -11z m-2 -77 c2 -1 5
-12 7 -23 2 -15 -2 -20 -19 -19 -12 0 -20 -3 -17 -7 2 -4 0 -10 -6 -14 -5 -3
-10 -1 -10 6 0 8 -3 9 -13 0 -11 -8 -16 -6 -24 12 -17 40 -6 56 38 52 22 -2
42 -5 44 -7z"/>
<path d="M2274 2346 c-3 -9 -10 -13 -15 -10 -5 3 -6 -2 -3 -10 3 -9 2 -16 -3
-16 -5 0 -10 -6 -10 -12 -1 -21 -8 -43 -15 -48 -4 -3 -9 -15 -11 -25 -2 -11
-9 -33 -15 -48 -16 -38 -15 -54 3 -54 9 0 18 12 22 26 8 34 19 41 72 41 34 0
42 -3 37 -15 -3 -8 -1 -15 4 -15 6 0 9 -5 8 -11 -2 -6 7 -15 20 -20 16 -6 22
-5 22 6 0 7 -4 16 -10 20 -5 3 -7 12 -3 20 3 8 0 15 -7 15 -6 0 -8 5 -5 10 3
6 1 10 -6 10 -7 0 -10 3 -6 6 3 3 -3 25 -13 49 -10 24 -15 47 -12 51 4 4 1 4
-5 0 -8 -4 -13 -1 -13 7 0 8 -7 20 -15 27 -12 10 -16 9 -21 -4z m26 -77 c0 -9
6 -19 13 -22 17 -6 5 -16 -23 -19 -24 -3 -26 0 -21 45 2 20 31 16 31 -4z"/>
<path d="M2409 2325 c-4 -100 -3 -121 6 -127 6 -5 6 -8 -1 -8 -17 0 -5 -45 15
-57 14 -9 17 -6 16 21 0 17 -3 36 -7 42 -4 6 4 16 19 23 19 9 28 9 33 1 4 -7
10 -11 14 -11 19 3 25 -1 32 -21 5 -13 8 -26 9 -29 1 -11 35 -40 35 -29 0 6 5
8 10 5 6 -3 10 -1 10 4 0 6 -5 11 -12 11 -6 0 -8 3 -5 7 4 3 0 17 -8 30 -9 13
-12 23 -8 23 5 0 2 4 -5 9 -11 7 -10 12 5 27 11 11 18 26 18 34 -1 8 -3 23 -3
32 -3 27 -41 41 -109 42 l-63 1 -1 -30z m104 -11 c4 -1 14 -2 22 -3 17 -1 21
-41 4 -41 -5 0 -8 -3 -6 -7 3 -5 -15 -9 -39 -10 -24 -1 -42 2 -39 7 3 4 -1 10
-9 13 -9 4 -12 14 -9 26 4 14 11 18 30 15 17 -3 22 -1 17 7 -5 8 -3 9 7 3 8
-5 17 -9 22 -10z"/>
<path d="M2734 2352 c-5 -4 -9 -55 -9 -114 0 -102 1 -108 20 -108 18 0 20 6
20 63 -1 34 -4 67 -7 73 -4 6 0 11 8 11 9 0 20 -11 25 -24 5 -12 13 -23 19
-23 6 0 9 -4 6 -9 -3 -5 7 -24 23 -42 16 -18 27 -37 24 -42 -3 -5 5 -7 18 -5
23 3 24 6 25 108 1 97 -4 119 -27 120 -9 0 -11 -31 -7 -106 3 -38 0 -50 -9
-47 -7 3 -15 13 -18 24 -4 10 -11 19 -16 19 -6 0 -7 5 -4 10 3 6 1 10 -4 10
-6 0 -11 7 -11 15 0 9 -7 18 -15 21 -8 4 -15 12 -15 20 0 16 -33 35 -46 26z"/>
<path d="M1567 2336 c-2 -6 -3 -55 -2 -109 2 -99 16 -141 31 -96 11 34 11 63
-1 71 -6 5 -5 8 3 8 7 0 11 3 8 8 -2 4 16 7 40 7 24 0 44 -4 44 -8 0 -5 4 -6
9 -2 6 3 9 -12 8 -35 -1 -22 -6 -40 -12 -40 -5 0 -4 -4 4 -9 11 -7 30 -8 48
-2 1 1 -2 12 -7 26 -5 14 -6 25 -2 25 4 0 8 9 8 20 0 11 -4 20 -9 20 -5 0 -4
7 3 15 10 12 10 15 -1 15 -11 0 -11 2 1 10 11 7 11 10 2 10 -10 0 -10 5 -2 20
8 15 8 20 -1 20 -9 0 -9 3 0 14 15 18 -5 27 -34 15 -11 -4 -15 -8 -10 -8 6 -1
11 -10 12 -21 1 -13 -2 -18 -10 -13 -7 4 -6 0 2 -10 12 -15 9 -21 -11 -18 -5
0 -8 -2 -8 -6 0 -5 -11 -8 -25 -8 -14 0 -25 4 -25 8 0 5 -4 6 -9 3 -5 -3 -14
1 -20 8 -8 10 -9 16 -1 21 7 4 7 12 0 24 -5 10 -7 20 -5 23 3 3 -2 5 -10 5 -8
0 -16 -5 -18 -11z"/>
<path d="M1829 2318 c-6 -18 -13 -36 -14 -40 -1 -5 -3 -9 -5 -10 -1 -2 -3 -12
-5 -23 -2 -11 -9 -21 -15 -23 -5 -2 -8 -8 -5 -13 3 -4 -1 -21 -9 -37 -10 -20
-11 -33 -5 -43 8 -11 12 -11 16 -1 2 6 10 9 16 5 6 -4 8 -1 5 8 -7 17 18 56
28 46 4 -4 13 -2 21 4 9 9 13 8 13 0 0 -9 5 -9 20 -1 16 9 18 8 14 -5 -4 -8
-1 -15 6 -15 6 0 9 -4 6 -9 -3 -4 6 -19 21 -32 14 -13 23 -19 20 -12 -4 6 -1
14 5 17 11 5 11 7 0 12 -6 3 -10 10 -6 15 3 5 1 9 -5 9 -6 0 -7 7 -4 17 5 12
3 14 -7 8 -10 -6 -12 -4 -7 8 3 9 0 22 -7 29 -14 14 -16 20 -16 43 0 8 -9 24
-20 35 -12 12 -15 20 -7 20 8 0 7 4 -3 10 -26 17 -38 11 -51 -22z m48 -42 c0
-6 4 -18 7 -27 5 -11 -1 -19 -19 -27 -15 -7 -24 -8 -20 -2 3 5 1 10 -5 10 -7
0 -8 5 -3 13 7 11 9 16 12 35 2 13 28 10 28 -2z"/>
<path d="M720 1896 c-8 -6 -16 -20 -17 -31 -4 -45 -15 -91 -24 -102 -7 -7 -6
-14 1 -18 8 -5 8 -11 0 -20 -7 -8 -9 -18 -6 -24 3 -5 2 -11 -4 -13 -5 -1 -10
-20 -12 -41 -1 -21 -5 -40 -9 -42 -3 -3 -5 -16 -4 -30 2 -14 -1 -25 -6 -25 -5
0 -8 -3 -8 -7 4 -26 -2 -73 -9 -69 -5 3 -9 -1 -9 -9 0 -8 5 -15 10 -15 5 0 4
-6 -2 -13 -6 -8 -8 -17 -4 -20 3 -4 2 -7 -3 -7 -6 0 -11 -11 -12 -25 -1 -14
-3 -36 -4 -50 -1 -14 -5 -25 -9 -25 -4 0 -7 -12 -5 -27 1 -16 -1 -33 -6 -40
-5 -6 -10 -27 -11 -47 -1 -20 -4 -36 -7 -36 -3 0 -7 -16 -8 -36 -2 -20 -7 -44
-11 -53 -5 -9 -6 -22 -4 -28 3 -7 1 -13 -4 -13 -4 0 -9 -12 -10 -27 -2 -28
-10 -74 -13 -83 -1 -3 -3 -9 -5 -15 -1 -5 -3 -12 -4 -15 -3 -6 -13 -76 -14
-102 -1 -10 -4 -18 -8 -18 -4 0 -6 -13 -5 -29 1 -17 -1 -28 -5 -25 -4 2 -8 -4
-8 -13 -2 -52 -6 -73 -12 -73 -4 0 -6 -8 -5 -17 2 -9 -4 -30 -12 -45 -8 -16
-11 -32 -8 -35 3 -3 95 -5 203 -5 217 2 233 3 234 11 1 3 2 17 4 31 1 14 6 39
10 55 3 17 7 39 9 50 1 11 4 25 7 30 4 6 5 20 4 33 -1 12 1 22 5 22 3 0 6 10
7 22 1 11 8 25 15 29 7 5 8 9 3 9 -6 0 -11 9 -11 20 0 11 4 20 9 20 4 0 5 4 2
10 -3 6 0 10 7 10 9 0 9 3 -2 10 -8 5 -10 10 -5 10 6 0 11 8 12 18 5 51 14 87
26 94 9 6 9 8 -1 8 -7 0 -10 5 -7 10 7 11 16 52 19 90 2 14 6 32 9 40 4 8 9
26 11 40 3 14 5 25 6 25 2 0 10 56 12 83 1 6 6 12 12 12 6 0 4 5 -4 10 -10 6
-11 10 -2 10 7 0 12 13 12 29 0 16 6 32 13 34 9 4 9 6 -1 6 -7 1 -10 5 -7 11
8 13 17 50 18 78 1 12 4 22 7 22 3 0 7 11 8 25 1 14 3 36 4 50 1 14 5 25 8 25
3 0 7 16 8 37 2 20 6 41 9 47 4 6 8 26 10 45 2 19 8 40 12 46 16 18 -14 34
-71 38 -15 1 -28 5 -28 9 0 3 -11 5 -25 3 -14 -1 -25 1 -25 6 0 4 -8 7 -17 7
-10 -1 -29 2 -42 6 -18 6 -22 5 -16 -5 5 -9 1 -8 -11 2 -10 9 -25 14 -33 11
-10 -3 -11 0 -5 9 6 12 5 12 -8 1 -11 -9 -18 -10 -23 -2 -3 6 -11 8 -16 5 -5
-4 -9 -1 -9 4 0 6 -5 11 -11 11 -6 0 -7 -6 -2 -12 4 -8 -3 -6 -18 3 -19 13
-28 14 -39 5z"/>
<path d="M1704 1873 c8 -14 0 -16 -46 -15 -16 0 -28 -3 -28 -8 0 -5 -7 -7 -15
-4 -8 3 -20 2 -27 -2 -7 -5 -18 -9 -24 -10 -19 -3 -129 -57 -142 -70 -6 -7
-21 -16 -32 -19 -11 -4 -18 -11 -15 -16 4 -5 2 -9 -4 -9 -11 0 -71 -55 -71
-65 0 -3 -9 -15 -20 -27 -20 -22 -93 -158 -84 -158 2 0 -2 -16 -10 -35 -8 -19
-12 -35 -9 -35 3 0 0 -7 -7 -15 -7 -8 -9 -15 -6 -15 4 0 2 -9 -4 -20 -8 -15
-8 -20 1 -20 8 0 9 -4 0 -13 -6 -8 -8 -17 -4 -20 3 -4 1 -7 -6 -7 -7 0 -10
-10 -7 -25 3 -13 1 -27 -4 -30 -5 -3 -7 -14 -5 -25 2 -11 1 -20 -4 -20 -4 0
-8 -10 -9 -22 0 -13 -4 -36 -7 -53 -4 -16 -7 -38 -9 -47 -1 -10 -5 -20 -8 -24
-4 -3 -4 -13 -1 -22 4 -8 2 -13 -3 -9 -5 3 -9 -7 -8 -21 1 -15 -3 -33 -9 -39
-6 -9 -5 -13 4 -13 12 0 12 -2 0 -9 -8 -5 -15 -24 -16 -43 0 -18 -4 -39 -9
-46 -5 -8 -1 -11 16 -8 13 2 29 -2 37 -8 8 -6 12 -6 9 -1 -8 12 592 13 612 0
9 -5 11 -4 6 3 -5 9 2 11 26 7 42 -6 55 3 59 40 2 17 10 39 19 49 12 15 12 18
1 11 -11 -6 -13 -4 -6 11 4 10 8 29 8 42 1 12 4 22 7 22 3 0 6 8 7 18 2 49 8
82 14 82 4 0 6 8 5 18 -2 9 0 28 5 42 4 14 10 37 13 53 l6 27 -165 0 c-126 0
-165 3 -165 13 0 17 40 90 54 99 6 4 7 8 1 8 -5 0 14 16 44 35 30 19 58 32 63
29 4 -3 8 -1 8 5 0 6 38 9 95 8 52 -1 95 1 95 5 0 4 14 3 30 -2 17 -5 30 -5
30 0 0 11 43 0 52 -14 4 -6 3 -13 -1 -16 -5 -3 -11 -21 -14 -40 -3 -19 -9 -48
-12 -65 -4 -16 -8 -34 -9 -40 -1 -5 -6 -16 -10 -24 -7 -11 -6 -12 5 -6 12 7
12 6 1 -8 -8 -9 -14 -33 -15 -54 -1 -21 -8 -44 -17 -51 -8 -8 -9 -11 -2 -7 13
7 17 -11 3 -19 -4 -3 -7 -17 -6 -31 2 -14 0 -25 -4 -25 -4 0 -8 -17 -9 -37 -1
-20 -7 -41 -14 -46 -11 -7 -11 -10 0 -14 9 -3 10 -9 3 -17 -5 -6 -12 -25 -15
-41 -2 -17 -5 -30 -6 -30 -1 0 -4 -11 -5 -25 -2 -14 -7 -38 -10 -55 -3 -16 -7
-40 -7 -52 -1 -13 -5 -23 -9 -23 -5 0 -6 -9 -4 -20 2 -11 0 -22 -5 -25 -5 -3
-7 -14 -5 -25 2 -11 -2 -20 -8 -20 -8 0 -7 -3 2 -9 11 -7 11 -10 0 -17 -17
-11 -21 -64 -5 -65 56 -5 400 -3 408 2 6 4 11 25 12 47 1 22 6 40 11 39 6 -1
9 4 7 11 -1 6 3 33 9 60 6 26 13 63 16 82 10 68 -12 64 351 65 194 0 328 -4
325 -9 -4 -5 0 -5 8 0 7 4 122 9 254 11 272 2 265 2 284 17 12 9 13 8 7 -4 -4
-8 0 -6 8 4 10 13 16 15 16 7 0 -10 3 -11 13 -2 8 6 17 8 20 4 4 -3 7 -1 7 6
0 7 4 10 9 7 13 -8 42 4 35 15 -3 5 4 9 14 9 24 0 117 61 153 100 15 16 30 26
35 22 4 -4 4 -2 0 5 -3 6 4 19 16 27 12 9 19 16 14 16 -5 0 1 8 12 19 12 10
18 21 15 25 -4 4 -3 10 4 14 12 8 56 99 59 122 1 8 6 26 11 40 6 14 9 33 8 43
-2 9 1 17 6 17 5 0 9 5 9 11 0 5 -6 7 -12 3 -8 -5 -7 -1 2 10 8 10 15 28 16
40 0 11 6 44 12 71 14 62 23 106 24 123 1 6 4 12 8 12 3 0 5 15 5 33 -1 17 2
37 8 44 5 7 6 17 2 23 -3 5 -1 10 6 10 7 0 10 3 6 6 -3 3 -2 17 4 31 6 15 5
22 -1 18 -5 -3 -3 9 5 28 15 37 10 51 -23 60 -15 3 -25 0 -29 -9 -4 -12 -8
-12 -20 3 -8 10 -12 13 -8 6 4 -9 -7 -11 -41 -7 -26 2 -50 7 -55 10 -5 3 -6
-3 -2 -13 6 -16 5 -16 -10 -4 -9 7 -17 11 -17 8 0 -3 -14 -2 -30 3 -19 5 -28
5 -25 -1 8 -11 7 -11 -32 0 -22 7 -35 6 -39 -1 -5 -7 -2 -8 6 -3 9 6 11 4 6
-4 -6 -9 -13 -8 -29 6 -11 10 -17 13 -13 6 4 -8 -1 -12 -16 -11 -41 2 -45 -2
-43 -32 1 -16 -3 -30 -8 -30 -5 0 -7 -9 -4 -20 3 -11 1 -20 -5 -20 -5 0 -7 -9
-3 -19 3 -11 1 -22 -4 -25 -5 -4 -8 -15 -6 -26 2 -11 0 -22 -5 -25 -5 -3 -7
-14 -5 -25 2 -11 1 -20 -3 -20 -4 0 -9 -12 -10 -27 -3 -29 -9 -68 -12 -68 -1
0 -3 -11 -6 -25 -2 -14 -7 -36 -11 -50 -3 -14 -7 -28 -7 -32 -1 -3 -4 -10 -8
-14 -5 -4 -8 -15 -8 -25 0 -10 -9 -24 -20 -32 -11 -8 -17 -17 -13 -20 3 -4 -1
-7 -11 -7 -9 0 -15 -4 -12 -8 2 -4 -18 -20 -45 -34 -27 -15 -49 -23 -49 -17 0
5 -10 3 -23 -6 -13 -8 -27 -12 -31 -8 -4 4 -22 6 -41 4 -29 -2 -34 1 -32 18 1
12 4 21 7 21 3 0 7 10 8 23 2 27 10 72 12 72 1 0 3 11 5 25 1 14 7 45 13 69 6
25 9 48 6 52 -2 4 0 9 6 11 5 1 11 22 12 45 1 23 5 40 9 37 4 -2 6 7 3 21 -2
14 0 25 4 25 5 0 8 12 6 27 -1 15 1 32 6 38 4 5 10 26 13 45 3 19 8 47 11 61
6 28 -17 48 -30 27 -5 -7 -2 -8 6 -3 9 5 11 4 6 -4 -5 -7 -12 -9 -19 -3 -20
15 -97 15 -98 0 0 -7 -4 -4 -9 7 -5 11 -9 15 -9 8 -1 -8 -21 -10 -68 -7 -47 3
-69 1 -75 -8 -4 -8 -8 -8 -8 -2 0 6 -18 10 -42 10 -24 -1 -48 2 -55 7 -7 5
-13 -2 -18 -23 -4 -16 -10 -28 -13 -26 -4 2 -7 -11 -6 -30 1 -19 -2 -36 -7
-39 -4 -3 -6 -12 -2 -20 3 -9 -1 -15 -8 -15 -11 0 -11 -3 1 -10 11 -7 11 -10
2 -10 -7 0 -10 -4 -7 -10 3 -5 1 -19 -5 -30 -8 -15 -8 -20 2 -20 10 0 10 -2 0
-9 -8 -5 -15 -24 -15 -42 -1 -19 -5 -36 -8 -39 -4 -3 -9 -23 -10 -45 -2 -22
-7 -42 -11 -45 -4 -3 -8 -25 -9 -48 -2 -23 -7 -42 -12 -42 -5 0 -7 -7 -3 -15
3 -8 -1 -32 -9 -54 -7 -22 -11 -42 -8 -45 4 -3 -96 -6 -220 -6 l-227 0 3 28
c2 15 7 33 11 40 4 7 5 12 2 12 -2 0 -1 14 4 32 5 17 12 50 16 72 3 23 11 47
17 55 10 12 9 13 -3 6 -13 -8 -13 -7 -1 8 7 9 11 26 8 37 -3 11 0 20 6 20 6 0
7 3 4 7 -4 3 -1 13 6 21 10 13 9 14 -1 8 -11 -7 -12 -4 -4 11 6 11 13 33 16
49 2 16 5 29 6 29 1 0 3 15 5 33 2 18 8 39 13 45 4 7 7 24 6 40 -2 15 0 27 4
27 4 0 8 9 8 19 0 11 -4 17 -8 15 -4 -3 -8 1 -8 8 0 9 -3 9 -10 -2 -5 -8 -10
-10 -10 -5 0 6 -5 3 -10 -5 -5 -8 -10 -10 -10 -4 0 6 -20 12 -45 12 -29 2 -45
-2 -45 -10 0 -6 -7 -3 -16 8 -8 10 -13 14 -10 7 7 -13 -41 -12 -63 1 -10 6
-12 5 -7 -2 4 -7 1 -12 -9 -12 -10 0 -13 5 -9 13 4 6 -3 3 -16 -8 -13 -11 -21
-15 -17 -9 4 8 -10 12 -43 13 -29 0 -50 -4 -50 -10 0 -5 -5 -7 -10 -4 -6 4 -7
12 -3 18 5 9 3 9 -8 1 -17 -12 -48 -12 -68 0 -10 6 -12 5 -7 -2 4 -7 1 -12 -9
-12 -10 0 -13 5 -9 13 4 6 -3 3 -16 -8 -13 -11 -21 -15 -17 -9 4 8 -10 12 -43
13 -29 0 -50 -4 -50 -10 0 -5 -5 -7 -10 -4 -6 4 -7 12 -3 18 5 9 3 9 -8 1 -17
-12 -48 -12 -68 0 -10 6 -12 5 -7 -2 4 -7 1 -12 -9 -12 -10 0 -13 5 -9 13 4 6
-3 3 -16 -8 -13 -11 -20 -14 -16 -8 5 9 -2 12 -26 10 -18 -2 -39 1 -47 7 -11
8 -13 8 -7 -1z"/>
<path d="M2590 752 c0 -6 -8 -11 -17 -11 -39 -1 -53 -5 -53 -13 0 -5 -4 -6
-10 -3 -5 3 -10 1 -10 -4 0 -6 -5 -11 -11 -11 -7 0 -26 -15 -43 -34 -47 -52
-55 -63 -49 -70 4 -3 2 -6 -3 -6 -10 0 -11 -7 -16 -65 -2 -16 -7 -33 -13 -37
-6 -5 -5 -8 2 -8 8 0 11 -13 9 -36 -2 -23 2 -38 11 -41 8 -3 12 -11 9 -18 -3
-8 2 -16 11 -19 9 -4 13 -9 10 -12 -10 -10 74 -75 122 -96 32 -13 46 -16 51
-7 6 8 9 7 13 -2 5 -12 7 -12 15 0 8 11 10 11 14 0 2 -7 11 -10 19 -7 8 3 17
6 22 7 45 6 157 93 157 121 0 5 5 10 11 10 6 0 9 7 5 15 -3 8 0 15 5 15 6 0 9
9 6 20 -9 34 7 30 24 -6 9 -19 11 -31 5 -28 -6 3 -4 0 4 -8 8 -7 16 -19 18
-26 3 -18 69 -82 76 -75 3 4 6 1 6 -5 0 -7 3 -11 8 -10 4 1 17 -3 28 -10 12
-6 24 -8 28 -5 3 3 6 2 6 -3 0 -5 25 -9 55 -10 30 0 55 3 55 8 0 4 3 7 8 6 15
-5 72 21 72 33 0 7 3 10 6 6 6 -6 84 71 82 82 -2 20 3 31 12 26 5 -3 7 0 4 8
-3 8 -1 18 5 22 8 4 8 12 1 26 -7 13 -7 19 0 19 12 0 9 22 -5 32 -6 5 -5 8 4
8 10 0 11 3 2 14 -6 8 -11 18 -10 22 4 17 -19 60 -55 103 -20 23 -36 40 -36
35 0 -4 -8 0 -18 9 -10 9 -27 18 -38 20 -10 2 -26 7 -35 11 -19 8 -115 3 -125
-7 -4 -4 -14 -7 -21 -7 -16 0 -74 -39 -87 -59 -4 -7 -16 -21 -25 -30 -17 -19
-21 -29 -29 -73 -2 -16 -9 -28 -14 -28 -5 0 -6 5 -3 10 3 6 2 10 -4 10 -6 0
-8 7 -5 15 4 8 1 15 -7 15 -7 0 -9 3 -6 6 10 10 -59 104 -76 104 -5 0 -15 7
-23 15 -9 8 -24 15 -34 15 -10 0 -21 7 -24 16 -5 14 -9 14 -23 3 -19 -16 -23
-16 -34 3 -7 11 -9 11 -9 -1 0 -11 -3 -11 -15 -1 -9 8 -15 8 -15 2z"/>
</g>
</svg>
